<svg width="619" height="250" viewBox="0 0 619 250" fill="none" xmlns="http://www.w3.org/2000/svg">
<mask id="path-1-inside-1_103_2" fill="white">
<path fill-rule="evenodd" clip-rule="evenodd" d="M160.898 211.733C136.861 240.321 103.753 255.297 71.4507 248.289C19.2818 236.97 -11.0335 172.596 3.73946 104.506C18.5124 36.4153 72.7795 -9.60741 124.948 1.71119C146.067 6.29308 163.604 19.5692 176.019 38.2666C200.057 9.67922 233.164 -5.29725 265.467 1.71119C286.604 6.29714 304.154 19.5927 316.57 38.3163C340.611 9.69659 373.738 -5.30131 406.06 1.71119C427.197 6.29714 444.747 19.5928 457.163 38.3164C481.204 9.69662 514.331 -5.30132 546.653 1.71119C598.822 13.0298 629.137 77.4036 614.364 145.494C599.591 213.585 545.324 259.607 493.155 248.289C472.018 243.703 454.468 230.407 442.051 211.684C418.01 240.303 384.883 255.301 352.562 248.289C331.425 243.703 313.875 230.407 301.458 211.684C277.417 240.303 244.29 255.301 211.969 248.289C190.85 243.707 173.313 230.431 160.898 211.733Z"/>
</mask>
<path fill-rule="evenodd" clip-rule="evenodd" d="M160.898 211.733C136.861 240.321 103.753 255.297 71.4507 248.289C19.2818 236.97 -11.0335 172.596 3.73946 104.506C18.5124 36.4153 72.7795 -9.60741 124.948 1.71119C146.067 6.29308 163.604 19.5692 176.019 38.2666C200.057 9.67922 233.164 -5.29725 265.467 1.71119C286.604 6.29714 304.154 19.5927 316.57 38.3163C340.611 9.69659 373.738 -5.30131 406.06 1.71119C427.197 6.29714 444.747 19.5928 457.163 38.3164C481.204 9.69662 514.331 -5.30132 546.653 1.71119C598.822 13.0298 629.137 77.4036 614.364 145.494C599.591 213.585 545.324 259.607 493.155 248.289C472.018 243.703 454.468 230.407 442.051 211.684C418.01 240.303 384.883 255.301 352.562 248.289C331.425 243.703 313.875 230.407 301.458 211.684C277.417 240.303 244.29 255.301 211.969 248.289C190.85 243.707 173.313 230.431 160.898 211.733Z" fill="white"/>
<path d="M71.4507 248.289L71.2386 249.266L71.2386 249.266L71.4507 248.289ZM160.898 211.733L161.731 211.18L160.992 210.068L160.133 211.09L160.898 211.733ZM124.948 1.71119L124.736 2.68845L124.736 2.68845L124.948 1.71119ZM176.019 38.2666L175.186 38.8197L175.925 39.9325L176.784 38.9102L176.019 38.2666ZM265.467 1.71119L265.255 2.68845L265.255 2.68845L265.467 1.71119ZM316.57 38.3163L315.737 38.869L316.476 39.9834L317.336 38.9595L316.57 38.3163ZM406.06 1.71119L406.272 0.733926L406.272 0.733926L406.06 1.71119ZM457.163 38.3164L456.33 38.8691L457.069 39.9835L457.929 38.9596L457.163 38.3164ZM546.653 1.71119L546.865 0.733926L546.865 0.733926L546.653 1.71119ZM614.364 145.494L613.387 145.282L613.387 145.282L614.364 145.494ZM493.155 248.289L492.943 249.266L492.943 249.266L493.155 248.289ZM442.051 211.684L442.885 211.131L442.146 210.017L441.286 211.04L442.051 211.684ZM352.562 248.289L352.35 249.266L352.35 249.266L352.562 248.289ZM301.458 211.684L302.292 211.131L301.553 210.017L300.693 211.04L301.458 211.684ZM211.969 248.289L211.757 249.266L211.757 249.266L211.969 248.289ZM71.2386 249.266C104.003 256.375 137.46 241.161 161.664 212.377L160.133 211.09C136.261 239.48 103.504 254.22 71.6627 247.312L71.2386 249.266ZM2.76219 104.294C-4.66681 138.535 -0.767766 171.877 11.5872 198.113C23.9426 224.349 44.7866 243.527 71.2386 249.266L71.6627 247.312C45.9459 241.732 25.5478 223.063 13.3966 197.261C1.24487 171.457 -2.62726 138.567 4.71672 104.718L2.76219 104.294ZM125.16 0.733926C98.7083 -5.00514 71.791 3.81019 49.6737 22.5674C27.5573 41.3239 10.1912 70.0526 2.76219 104.294L4.71672 104.718C12.0607 70.8686 29.2147 42.5407 50.9673 24.0928C72.7189 5.64565 99.0196 -2.89108 124.736 2.68845L125.16 0.733926ZM176.852 37.7134C164.317 18.8353 146.573 5.37953 125.16 0.733926L124.736 2.68845C145.561 7.20663 162.891 20.3031 175.186 38.8197L176.852 37.7134ZM265.679 0.733926C232.914 -6.37463 199.457 8.83868 175.254 37.623L176.784 38.9102C200.656 10.5198 233.413 -4.21987 265.255 2.68845L265.679 0.733926ZM317.404 37.7636C304.867 18.8591 287.11 5.38365 265.679 0.733926L265.255 2.68845C286.098 7.21063 303.44 20.3263 315.737 38.869L317.404 37.7636ZM406.272 0.733926C373.488 -6.37875 340.011 8.85631 315.805 37.6731L317.336 38.9595C341.211 10.5369 373.988 -4.22387 405.848 2.68845L406.272 0.733926ZM457.997 37.7637C445.46 18.8592 427.703 5.38365 406.272 0.733926L405.848 2.68845C426.691 7.21063 444.033 20.3264 456.33 38.8691L457.997 37.7637ZM457.929 38.9596C481.804 10.5369 514.581 -4.22388 546.441 2.68845L546.865 0.733926C514.082 -6.37876 480.604 8.85634 456.398 37.6732L457.929 38.9596ZM546.441 2.68845C572.158 8.26799 592.556 26.9365 604.707 52.7392C616.859 78.5431 620.731 111.433 613.387 145.282L615.341 145.706C622.77 111.465 618.871 78.1225 606.516 51.8871C594.161 25.6507 573.317 6.47299 546.865 0.733926L546.441 2.68845ZM613.387 145.282C606.043 179.131 588.889 207.459 567.136 225.907C545.385 244.354 519.084 252.891 493.367 247.312L492.943 249.266C519.395 255.005 546.312 246.19 568.43 227.433C590.546 208.676 607.912 179.947 615.341 145.706L613.387 145.282ZM493.367 247.312C472.524 242.789 455.182 229.674 442.885 211.131L441.218 212.236C453.755 231.141 471.512 244.616 492.943 249.266L493.367 247.312ZM352.35 249.266C385.133 256.379 418.611 241.144 442.817 212.327L441.286 211.04C417.41 239.463 384.634 254.224 352.774 247.312L352.35 249.266ZM300.625 212.236C313.162 231.141 330.919 244.616 352.35 249.266L352.774 247.312C331.931 242.789 314.588 229.674 302.292 211.131L300.625 212.236ZM211.757 249.266C244.54 256.379 278.017 241.144 302.224 212.327L300.693 211.04C276.817 239.463 244.041 254.224 212.181 247.312L211.757 249.266ZM160.065 212.287C172.6 231.165 190.345 244.62 211.757 249.266L212.181 247.312C191.356 242.793 174.026 229.697 161.731 211.18L160.065 212.287Z" fill="black" mask="url(#path-1-inside-1_103_2)"/>
</svg>
