<svg width="681" height="349" viewBox="0 0 681 349" fill="none" xmlns="http://www.w3.org/2000/svg">
<mask id="path-1-inside-1_32_184" fill="white">
<path fill-rule="evenodd" clip-rule="evenodd" d="M99.7452 346.611C146.691 356.797 194.855 333.719 228.683 290.569C246.139 319.303 271.826 339.813 303.16 346.611C350.107 356.797 398.27 333.719 432.098 290.569C449.554 319.303 475.241 339.813 506.576 346.611C579.404 362.412 655.16 298.164 675.783 203.11C696.406 108.056 654.086 18.1897 581.259 2.38888C534.312 -7.79663 486.149 15.2809 452.321 58.4314C434.865 29.6968 409.178 9.1873 377.843 2.38888C330.897 -7.79663 282.734 15.2809 248.906 58.4314C231.45 29.6968 205.763 9.18724 174.428 2.38882C101.6 -13.412 25.8434 50.8358 5.22028 145.89C-15.4028 240.945 26.9174 330.81 99.7452 346.611Z"/>
</mask>
<path fill-rule="evenodd" clip-rule="evenodd" d="M99.7452 346.611C146.691 356.797 194.855 333.719 228.683 290.569C246.139 319.303 271.826 339.813 303.16 346.611C350.107 356.797 398.27 333.719 432.098 290.569C449.554 319.303 475.241 339.813 506.576 346.611C579.404 362.412 655.16 298.164 675.783 203.11C696.406 108.056 654.086 18.1897 581.259 2.38888C534.312 -7.79663 486.149 15.2809 452.321 58.4314C434.865 29.6968 409.178 9.1873 377.843 2.38888C330.897 -7.79663 282.734 15.2809 248.906 58.4314C231.45 29.6968 205.763 9.18724 174.428 2.38882C101.6 -13.412 25.8434 50.8358 5.22028 145.89C-15.4028 240.945 26.9174 330.81 99.7452 346.611Z" fill="white"/>
<path d="M228.683 290.569L229.537 290.049L228.787 288.815L227.896 289.952L228.683 290.569ZM99.7452 346.611L99.9572 345.634L99.9572 345.634L99.7452 346.611ZM303.16 346.611L303.372 345.634L303.372 345.634L303.16 346.611ZM432.098 290.569L432.953 290.05L432.202 288.815L431.311 289.952L432.098 290.569ZM506.576 346.611L506.788 345.634L506.788 345.634L506.576 346.611ZM675.783 203.11L676.761 203.322L676.761 203.322L675.783 203.11ZM581.259 2.38888L581.047 3.36615L581.047 3.36615L581.259 2.38888ZM452.321 58.4314L451.466 58.9506L452.217 60.1855L453.108 59.0484L452.321 58.4314ZM377.843 2.38888L377.631 3.36615L377.631 3.36615L377.843 2.38888ZM248.906 58.4314L248.051 58.9506L248.801 60.1855L249.693 59.0484L248.906 58.4314ZM174.428 2.38882L174.64 1.41156L174.64 1.41156L174.428 2.38882ZM5.22028 145.89L6.19754 146.102L5.22028 145.89ZM227.896 289.952C194.228 332.898 146.422 355.715 99.9572 345.634L99.5331 347.588C146.961 357.878 195.481 334.541 229.47 291.186L227.896 289.952ZM303.372 345.634C272.351 338.904 246.877 318.593 229.537 290.049L227.828 291.088C245.4 320.014 271.3 340.722 302.948 347.589L303.372 345.634ZM431.311 289.952C397.644 332.898 349.837 355.715 303.372 345.634L302.948 347.589C350.376 357.878 398.897 334.541 432.885 291.186L431.311 289.952ZM506.788 345.634C475.766 338.904 450.292 318.593 432.953 290.05L431.243 291.088C448.816 320.014 474.716 340.722 506.364 347.589L506.788 345.634ZM674.806 202.898C664.537 250.229 640.548 289.854 610.11 315.669C579.672 341.482 542.834 353.455 506.788 345.634L506.364 347.589C543.145 355.569 580.6 343.318 611.403 317.194C642.206 291.071 666.407 251.045 676.761 203.322L674.806 202.898ZM581.047 3.36615C617.093 11.1868 645.657 37.3489 662.66 73.4553C679.664 109.563 685.075 155.567 674.806 202.898L676.761 203.322C687.115 155.599 681.677 109.142 664.47 72.6032C647.262 36.063 618.252 9.39177 581.471 1.41162L581.047 3.36615ZM453.108 59.0484C486.775 16.1025 534.582 -6.71489 581.047 3.36615L581.471 1.41162C534.043 -8.87836 485.522 14.4593 451.534 57.8145L453.108 59.0484ZM377.631 3.36615C408.653 10.0966 434.127 30.4075 451.466 58.9506L453.176 57.9122C435.603 28.9862 409.703 8.27802 378.055 1.41162L377.631 3.36615ZM249.693 59.0484C283.36 16.1025 331.166 -6.71489 377.631 3.36615L378.055 1.41162C330.627 -8.87836 282.107 14.4593 248.119 57.8145L249.693 59.0484ZM174.216 3.36608C205.237 10.0965 230.712 30.4074 248.051 58.9506L249.761 57.9122C232.188 28.9862 206.288 8.27796 174.64 1.41156L174.216 3.36608ZM6.19754 146.102C16.4666 98.7709 40.4555 59.1458 70.8942 33.3315C101.332 7.5179 138.17 -4.45454 174.216 3.36608L174.64 1.41156C137.858 -6.56859 100.404 5.68245 69.6006 31.8062C38.7981 57.9291 14.5971 97.955 4.24302 145.678L6.19754 146.102ZM99.9572 345.634C63.911 337.813 35.3469 311.651 18.3434 275.545C1.33934 239.437 -4.07149 193.433 6.19754 146.102L4.24302 145.678C-6.11104 193.401 -0.673297 239.858 16.534 276.397C33.7417 312.937 62.7516 339.608 99.5331 347.588L99.9572 345.634Z" fill="black" mask="url(#path-1-inside-1_32_184)"/>
</svg>
