<svg width="834" height="905" viewBox="0 0 834 905" fill="none" xmlns="http://www.w3.org/2000/svg">
<rect x="356" y="245" width="102" height="660" fill="black"/>
<mask id="path-2-inside-1_41_34" fill="white">
<path fill-rule="evenodd" clip-rule="evenodd" d="M217.07 285.652C184.64 324.219 139.975 344.424 96.3949 334.969C26.0133 319.699 -14.8855 232.852 5.04494 140.99C24.9753 49.1283 98.1877 -12.9615 168.569 2.30859C197.06 8.49006 220.72 26.401 237.469 51.6259C269.899 13.0584 314.564 -7.14658 358.144 2.30859C386.661 8.49553 410.337 26.4327 427.089 51.6929C459.523 13.0818 504.214 -7.15206 547.82 2.30859C576.336 8.49553 600.013 26.4327 616.764 51.6929C649.198 13.0818 693.89 -7.15205 737.495 2.30859C807.877 17.5786 848.776 104.426 828.845 196.288C808.915 288.149 735.702 350.239 665.321 334.969C636.804 328.782 613.128 310.845 596.376 285.585C563.942 324.196 519.251 344.43 475.645 334.969C447.129 328.782 423.452 310.845 406.701 285.585C374.267 324.196 329.575 344.43 285.97 334.969C257.479 328.788 233.819 310.877 217.07 285.652Z"/>
</mask>
<path fill-rule="evenodd" clip-rule="evenodd" d="M217.07 285.652C184.64 324.219 139.975 344.424 96.3949 334.969C26.0133 319.699 -14.8855 232.852 5.04494 140.99C24.9753 49.1283 98.1877 -12.9615 168.569 2.30859C197.06 8.49006 220.72 26.401 237.469 51.6259C269.899 13.0584 314.564 -7.14658 358.144 2.30859C386.661 8.49553 410.337 26.4327 427.089 51.6929C459.523 13.0818 504.214 -7.15206 547.82 2.30859C576.336 8.49553 600.013 26.4327 616.764 51.6929C649.198 13.0818 693.89 -7.15205 737.495 2.30859C807.877 17.5786 848.776 104.426 828.845 196.288C808.915 288.149 735.702 350.239 665.321 334.969C636.804 328.782 613.128 310.845 596.376 285.585C563.942 324.196 519.251 344.43 475.645 334.969C447.129 328.782 423.452 310.845 406.701 285.585C374.267 324.196 329.575 344.43 285.97 334.969C257.479 328.788 233.819 310.877 217.07 285.652Z" fill="#31AF57"/>
<path d="M96.3949 334.969L96.607 333.992L96.607 333.992L96.3949 334.969ZM217.07 285.652L217.903 285.099L217.164 283.986L216.304 285.008L217.07 285.652ZM5.04494 140.99L6.0222 141.202L5.04494 140.99ZM168.569 2.30859L168.781 1.33132L168.569 2.30859ZM237.469 51.6259L236.636 52.1791L237.375 53.2918L238.235 52.2695L237.469 51.6259ZM358.144 2.30859L357.932 3.28585L357.932 3.28585L358.144 2.30859ZM427.089 51.6929L426.255 52.2456L426.994 53.36L427.854 52.3361L427.089 51.6929ZM547.82 2.30859L547.608 3.28585L547.608 3.28585L547.82 2.30859ZM616.764 51.6929L615.931 52.2455L616.67 53.3599L617.53 52.3361L616.764 51.6929ZM737.495 2.30859L737.283 3.28585L737.283 3.28585L737.495 2.30859ZM828.845 196.288L829.822 196.5L829.822 196.5L828.845 196.288ZM665.321 334.969L665.109 335.946L665.109 335.946L665.321 334.969ZM596.376 285.585L597.21 285.032L596.471 283.918L595.611 284.942L596.376 285.585ZM475.645 334.969L475.433 335.946L475.433 335.946L475.645 334.969ZM406.701 285.585L407.534 285.032L406.795 283.918L405.935 284.942L406.701 285.585ZM285.97 334.969L285.758 335.946L285.758 335.946L285.97 334.969ZM96.1829 335.946C140.224 345.502 185.24 325.06 217.835 286.295L216.304 285.008C184.041 323.379 139.726 343.347 96.607 333.992L96.1829 335.946ZM4.06768 140.778C-5.94003 186.905 -0.684483 231.808 15.9482 267.128C32.5815 302.448 60.6244 328.232 96.1829 335.946L96.607 333.992C61.7838 326.437 34.1866 301.162 17.7576 266.275C1.32815 231.388 -3.90048 186.937 6.0222 141.202L4.06768 140.778ZM168.781 1.33132C133.223 -6.38347 97.016 5.46076 67.2411 30.7122C37.4671 55.9629 14.0754 94.6512 4.06768 140.778L6.0222 141.202C15.9449 95.4671 39.1245 57.1797 68.5347 32.2376C97.9439 7.29622 133.534 -4.26941 168.357 3.28585L168.781 1.33132ZM238.302 51.0728C221.433 25.6671 197.566 7.57651 168.781 1.33132L168.357 3.28585C196.555 9.40361 220.007 27.135 236.636 52.1791L238.302 51.0728ZM358.356 1.33132C314.315 -8.22396 269.299 12.2178 236.704 50.9823L238.235 52.2695C270.498 13.8989 314.813 -6.06921 357.932 3.28585L358.356 1.33132ZM427.922 51.1402C411.05 25.6991 387.166 7.58204 358.356 1.33132L357.932 3.28585C386.155 9.40902 409.624 27.1663 426.255 52.2456L427.922 51.1402ZM548.032 1.33132C503.965 -8.22949 458.922 12.2415 426.323 51.0497L427.854 52.3361C460.123 13.922 504.464 -6.07462 547.608 3.28585L548.032 1.33132ZM617.597 51.1402C600.726 25.6991 576.842 7.58204 548.032 1.33132L547.608 3.28585C575.83 9.40902 599.299 27.1663 615.931 52.2455L617.597 51.1402ZM617.53 52.3361C649.798 13.922 694.14 -6.07461 737.283 3.28585L737.707 1.33132C693.64 -8.22949 648.598 12.2415 615.998 51.0497L617.53 52.3361ZM737.283 3.28585C772.106 10.8411 799.704 36.1159 816.132 71.0024C832.562 105.89 837.791 150.341 827.868 196.076L829.822 196.5C839.83 150.373 834.575 105.469 817.942 70.1503C801.309 34.83 773.266 9.04612 737.707 1.33132L737.283 3.28585ZM827.868 196.076C817.945 241.811 794.766 280.098 765.355 305.04C735.946 329.982 700.356 341.547 665.533 333.992L665.109 335.946C700.667 343.661 736.874 331.817 766.649 306.566C796.423 281.315 819.815 242.627 829.822 196.5L827.868 196.076ZM665.533 333.992C637.31 327.869 613.841 310.111 597.21 285.032L595.543 286.138C612.415 311.579 636.298 329.696 665.109 335.946L665.533 333.992ZM475.433 335.946C519.5 345.507 564.543 325.036 597.142 286.228L595.611 284.942C563.342 323.356 519.001 343.352 475.857 333.992L475.433 335.946ZM405.867 286.138C422.739 311.579 446.623 329.696 475.433 335.946L475.857 333.992C447.635 327.869 424.166 310.111 407.534 285.032L405.867 286.138ZM285.758 335.946C329.825 345.507 374.867 325.036 407.467 286.228L405.935 284.942C373.667 323.356 329.325 343.352 286.182 333.992L285.758 335.946ZM216.237 286.205C233.106 311.611 256.973 329.701 285.758 335.946L286.182 333.992C257.984 327.874 234.532 310.143 217.903 285.099L216.237 286.205Z" fill="black" mask="url(#path-2-inside-1_41_34)"/>
</svg>
