<svg width="1145" height="463" viewBox="0 0 1145 463" fill="none" opacity="0.6" xmlns="http://www.w3.org/2000/svg">
<mask id="path-1-inside-1_85_7" fill="#31af57">
<path fill-rule="evenodd" clip-rule="evenodd" d="M297.89 392.007C253.387 444.934 192.091 472.662 132.285 459.687C35.6987 438.731 -20.4277 319.548 6.9233 193.484C34.2743 67.42 134.745 -17.7873 231.332 3.16813C270.431 11.6511 302.9 36.2308 325.885 70.8475C370.389 17.9203 431.684 -9.80743 491.49 3.16813C530.624 11.6586 563.116 36.2743 586.104 70.9395C630.614 17.9524 691.946 -9.81495 751.787 3.16813C790.92 11.6586 823.412 36.2743 846.401 70.9395C890.911 17.9524 952.243 -9.81495 1012.08 3.16813C1108.67 24.1236 1164.8 143.307 1137.45 269.371C1110.09 395.435 1009.62 480.642 913.037 459.687C873.903 451.196 841.411 426.58 818.422 391.915C773.912 444.902 712.581 472.67 652.74 459.687C613.606 451.196 581.114 426.58 558.126 391.915C513.616 444.902 452.284 472.67 392.443 459.687C353.344 451.204 320.875 426.624 297.89 392.007Z"/>
</mask>
<path d="M132.285 459.687L131.861 461.641L131.861 461.641L132.285 459.687ZM297.89 392.007L299.556 390.901L298.079 388.675L296.359 390.72L297.89 392.007ZM6.9233 193.484L8.87782 193.908L8.87782 193.908L6.9233 193.484ZM231.332 3.16813L231.756 1.2136L231.332 3.16813ZM325.885 70.8475L324.219 71.9538L325.697 74.1793L327.416 72.1347L325.885 70.8475ZM491.49 3.16813L491.066 5.12266L491.066 5.12266L491.49 3.16813ZM586.104 70.9395L584.438 72.0448L585.916 74.2736L587.636 72.2259L586.104 70.9395ZM751.787 3.16813L751.363 5.12266L751.363 5.12266L751.787 3.16813ZM846.401 70.9395L844.734 72.0449L846.212 74.2737L847.932 72.2259L846.401 70.9395ZM1012.08 3.16813L1012.51 1.2136L1012.08 3.16813ZM1137.45 269.371L1135.49 268.947L1135.49 268.947L1137.45 269.371ZM913.037 459.687L912.613 461.641L912.613 461.641L913.037 459.687ZM818.422 391.915L820.089 390.81L818.611 388.581L816.891 390.629L818.422 391.915ZM652.74 459.687L652.316 461.641L652.316 461.641L652.74 459.687ZM558.126 391.915L559.793 390.81L558.314 388.581L556.594 390.629L558.126 391.915ZM392.443 459.687L392.019 461.641L392.019 461.641L392.443 459.687ZM131.861 461.641C192.59 474.817 254.586 446.615 299.421 393.294L296.359 390.72C252.187 443.253 191.592 470.507 132.709 457.732L131.861 461.641ZM4.96877 193.06C-8.79174 256.484 -1.57097 318.248 21.3183 366.853C44.2086 415.46 82.8326 451.004 131.861 461.641L132.709 457.732C85.1513 447.414 47.4189 412.888 24.9371 365.149C2.4543 317.407 -4.71264 256.548 8.87782 193.908L4.96877 193.06ZM231.756 1.2136C182.727 -9.42367 132.846 6.9179 91.8707 41.6684C50.8969 76.4174 18.7293 129.636 4.96877 193.06L8.87782 193.908C22.4683 131.268 54.2117 78.851 94.4579 44.7191C134.702 10.5888 183.35 -5.19555 230.908 5.12266L231.756 1.2136ZM327.551 69.7412C304.326 34.763 271.442 9.82403 231.756 1.2136L230.908 5.12266C269.42 13.4782 301.474 37.6986 324.219 71.9538L327.551 69.7412ZM491.914 1.2136C431.185 -11.9622 369.189 16.2392 324.354 69.5604L327.416 72.1347C371.588 19.6014 432.183 -7.65268 491.066 5.12266L491.914 1.2136ZM587.771 69.8341C564.543 34.8071 531.636 9.83165 491.914 1.2136L491.066 5.12266C529.612 13.4856 561.689 37.7415 584.438 72.0448L587.771 69.8341ZM752.211 1.2136C691.447 -11.9698 629.414 16.2719 584.573 69.6531L587.636 72.2259C631.815 19.633 692.445 -7.66007 751.363 5.12266L752.211 1.2136ZM848.068 69.8342C824.839 34.8072 791.932 9.83166 752.211 1.2136L751.363 5.12266C789.909 13.4856 821.985 37.7415 844.734 72.0449L848.068 69.8342ZM847.932 72.2259C892.111 19.633 952.742 -7.66007 1011.66 5.12266L1012.51 1.2136C951.743 -11.9698 889.711 16.2719 844.869 69.6531L847.932 72.2259ZM1011.66 5.12266C1059.22 15.4409 1096.95 49.9664 1119.43 97.7057C1141.91 145.447 1149.08 206.306 1135.49 268.947L1139.4 269.795C1153.16 206.371 1145.94 144.606 1123.05 96.0015C1100.16 47.3946 1061.54 11.8509 1012.51 1.2136L1011.66 5.12266ZM1135.49 268.947C1121.9 331.587 1090.16 384.004 1049.91 418.136C1009.67 452.266 961.019 468.05 913.461 457.732L912.613 461.641C961.641 472.278 1011.52 455.937 1052.5 421.186C1093.47 386.437 1125.64 333.219 1139.4 269.795L1135.49 268.947ZM913.461 457.732C874.915 449.369 842.838 425.113 820.089 390.81L816.756 393.021C839.984 428.047 872.891 453.023 912.613 461.641L913.461 457.732ZM652.316 461.641C713.08 474.824 775.113 446.583 819.954 393.202L816.891 390.629C772.712 443.222 712.081 470.515 653.164 457.732L652.316 461.641ZM556.459 393.021C579.687 428.048 612.594 453.023 652.316 461.641L653.164 457.732C614.618 449.369 582.541 425.113 559.793 390.81L556.459 393.021ZM392.019 461.641C452.783 474.824 514.816 446.583 559.657 393.202L556.594 390.629C512.416 443.222 451.785 470.515 392.867 457.732L392.019 461.641ZM296.224 393.113C319.449 428.092 352.333 453.031 392.019 461.641L392.867 457.732C354.356 449.376 322.301 425.156 299.556 390.901L296.224 393.113Z" fill="#31af57" mask="url(#path-1-inside-1_85_7)"/>
</svg>
