<svg width="2008" height="1486" viewBox="0 0 2008 1486" fill="none" xmlns="http://www.w3.org/2000/svg">
<rect x="858" y="256" width="209" height="1230" fill="black"/>
<mask id="path-2-inside-1_65_24" fill="white">
<path fill-rule="evenodd" clip-rule="evenodd" d="M522.661 687.793C444.578 780.656 337.032 829.306 232.1 806.54C62.6349 769.772 -35.8412 560.661 12.1472 339.476C60.1357 118.291 236.417 -31.2087 405.881 5.55862C474.483 20.4424 531.451 63.5686 571.779 124.305C649.863 31.442 757.408 -17.2076 862.34 5.55862C931.002 20.4556 988.011 63.6448 1028.35 124.466C1106.44 31.4983 1214.05 -17.2207 1319.04 5.55862C1387.7 20.4556 1444.71 63.645 1485.05 124.467C1563.14 31.4984 1670.75 -17.2208 1775.74 5.55862C1945.21 42.3259 2043.68 251.437 1995.7 472.622C1947.71 693.807 1771.43 843.307 1601.96 806.54C1533.3 791.643 1476.29 748.453 1435.96 687.632C1357.86 780.6 1250.25 829.319 1145.26 806.54C1076.6 791.643 1019.59 748.454 979.255 687.632C901.161 780.6 793.552 829.319 688.559 806.54C619.958 791.656 562.989 748.53 522.661 687.793Z"/>
</mask>
<path fill-rule="evenodd" clip-rule="evenodd" d="M522.661 687.793C444.578 780.656 337.032 829.306 232.1 806.54C62.6349 769.772 -35.8412 560.661 12.1472 339.476C60.1357 118.291 236.417 -31.2087 405.881 5.55862C474.483 20.4424 531.451 63.5686 571.779 124.305C649.863 31.442 757.408 -17.2076 862.34 5.55862C931.002 20.4556 988.011 63.6448 1028.35 124.466C1106.44 31.4983 1214.05 -17.2207 1319.04 5.55862C1387.7 20.4556 1444.71 63.645 1485.05 124.467C1563.14 31.4984 1670.75 -17.2208 1775.74 5.55862C1945.21 42.3259 2043.68 251.437 1995.7 472.622C1947.71 693.807 1771.43 843.307 1601.96 806.54C1533.3 791.643 1476.29 748.453 1435.96 687.632C1357.86 780.6 1250.25 829.319 1145.26 806.54C1076.6 791.643 1019.59 748.454 979.255 687.632C901.161 780.6 793.552 829.319 688.559 806.54C619.958 791.656 562.989 748.53 522.661 687.793Z" fill="#31AF57"/>
<path d="M232.1 806.54L231.888 807.517L231.888 807.517L232.1 806.54ZM522.661 687.793L523.494 687.24L522.755 686.127L521.896 687.15L522.661 687.793ZM12.1472 339.476L13.1245 339.688L12.1472 339.476ZM405.881 5.55862L405.669 6.53588L405.669 6.53588L405.881 5.55862ZM571.779 124.305L570.946 124.858L571.685 125.971L572.545 124.949L571.779 124.305ZM862.34 5.55862L862.128 6.53588L862.128 6.53588L862.34 5.55862ZM1028.35 124.466L1027.51 125.019L1028.25 126.133L1029.11 125.109L1028.35 124.466ZM1319.04 5.55862L1319.25 4.58135L1319.25 4.58135L1319.04 5.55862ZM1485.05 124.467L1484.21 125.019L1484.95 126.134L1485.81 125.11L1485.05 124.467ZM1775.74 5.55862L1775.96 4.58135L1775.96 4.58135L1775.74 5.55862ZM1995.7 472.622L1996.67 472.834L1996.67 472.834L1995.7 472.622ZM1601.96 806.54L1601.75 807.517L1601.75 807.517L1601.96 806.54ZM1435.96 687.632L1436.79 687.079L1436.05 685.965L1435.19 686.988L1435.96 687.632ZM1145.26 806.54L1145.05 807.517L1145.05 807.517L1145.26 806.54ZM979.255 687.632L980.089 687.079L979.35 685.965L978.49 686.989L979.255 687.632ZM688.559 806.54L688.771 805.562L688.771 805.562L688.559 806.54ZM231.888 807.517C337.282 830.383 445.177 781.497 523.426 688.437L521.896 687.15C443.978 779.816 336.783 828.228 232.312 805.562L231.888 807.517ZM11.17 339.264C-12.8668 450.052 -0.231404 557.853 39.6738 642.591C79.5796 727.329 146.788 789.054 231.888 807.517L232.312 805.562C147.947 787.259 81.1847 726.043 41.4832 641.738C1.78123 557.432 -10.8272 450.085 13.1245 339.688L11.17 339.264ZM406.093 4.58135C320.993 -13.8821 234.249 14.4404 162.814 75.0227C91.3801 135.604 35.2067 228.476 11.17 339.264L13.1245 339.688C37.0762 229.292 93.0375 136.821 164.107 76.548C235.177 16.2759 321.305 -11.768 405.669 6.53588L406.093 4.58135ZM572.612 123.752C532.164 62.8347 474.988 19.5289 406.093 4.58135L405.669 6.53588C473.977 21.356 530.738 64.3025 570.946 124.858L572.612 123.752ZM862.552 4.58135C757.159 -18.2849 649.263 30.6015 571.014 123.662L572.545 124.949C650.463 32.2826 757.658 -16.1302 862.128 6.53588L862.552 4.58135ZM1029.18 123.914C988.724 62.9112 931.508 19.5421 862.552 4.58135L862.128 6.53588C930.496 21.3691 987.297 64.3784 1027.51 125.019L1029.18 123.914ZM1319.25 4.58135C1213.8 -18.2982 1105.84 30.658 1027.58 123.823L1029.11 125.109C1107.04 32.3386 1214.3 -16.1433 1318.83 6.53588L1319.25 4.58135ZM1485.88 123.914C1445.43 62.9114 1388.21 19.5421 1319.25 4.58135L1318.83 6.53588C1387.2 21.3691 1444 64.3786 1484.21 125.019L1485.88 123.914ZM1485.81 125.11C1563.74 32.3387 1671 -16.1433 1775.53 6.53588L1775.96 4.58135C1670.5 -18.2982 1562.54 30.6581 1484.28 123.823L1485.81 125.11ZM1775.53 6.53588C1859.9 24.8398 1926.66 86.0549 1966.36 170.36C2006.06 254.666 2018.67 362.014 1994.72 472.41L1996.67 472.834C2020.71 362.046 2008.07 254.245 1968.17 169.508C1928.26 84.769 1861.06 23.0448 1775.96 4.58135L1775.53 6.53588ZM1994.72 472.41C1970.77 582.807 1914.81 675.277 1843.74 735.55C1772.67 795.822 1686.54 823.866 1602.17 805.562L1601.75 807.517C1686.85 825.98 1773.59 797.658 1845.03 737.076C1916.46 676.494 1972.64 583.623 1996.67 472.834L1994.72 472.41ZM1602.17 805.562C1533.81 790.729 1477 747.72 1436.79 687.079L1435.12 688.184C1475.58 749.187 1532.79 792.556 1601.75 807.517L1602.17 805.562ZM1145.05 807.517C1250.5 830.396 1358.46 781.44 1436.72 688.275L1435.19 686.988C1357.26 779.76 1250 828.242 1145.47 805.562L1145.05 807.517ZM978.422 688.185C1018.88 749.187 1076.09 792.556 1145.05 807.517L1145.47 805.562C1077.1 790.729 1020.3 747.72 980.089 687.079L978.422 688.185ZM688.347 807.517C793.801 830.396 901.761 781.44 980.021 688.275L978.49 686.989C900.561 779.76 793.302 828.242 688.771 805.562L688.347 807.517ZM521.828 688.346C562.276 749.264 619.452 792.569 688.347 807.517L688.771 805.562C620.463 790.742 563.702 747.796 523.494 687.24L521.828 688.346Z" fill="black" mask="url(#path-2-inside-1_65_24)"/>
</svg>
