<svg width="36" height="36" viewBox="0 0 36 36" fill="none" xmlns="http://www.w3.org/2000/svg">
<path fill-rule="evenodd" clip-rule="evenodd" d="M35.9667 10.5644C35.9667 13.4398 34.7857 16.0394 32.8823 17.9046C34.7857 19.7697 35.9667 22.3693 35.9667 25.2447C35.9667 30.9201 31.3659 35.5209 25.6905 35.5209C22.6213 35.5209 19.8663 34.1753 17.9834 32.0419C16.1004 34.1753 13.3454 35.5209 10.2762 35.5209C4.60081 35.5209 0 30.9201 0 25.2447C0 22.3693 1.18098 19.7697 3.08436 17.9046C1.18098 16.0394 0 13.4398 0 10.5644C0 4.88902 4.60081 0.288208 10.2762 0.288208C13.3454 0.288208 16.1004 1.63376 17.9834 3.76716C19.8663 1.63376 22.6213 0.288208 25.6905 0.288208C31.3659 0.288208 35.9667 4.88902 35.9667 10.5644Z" fill="#31AF57"/>
</svg>
